<?xml version="1.0" encoding="UTF-8" standalone="no"?>
<svg width="64px" height="64px" viewBox="0 0 64 64" version="1.1" xmlns="http://www.w3.org/2000/svg" xmlns:xlink="http://www.w3.org/1999/xlink">
    <defs></defs>
    <g id="Page-1" stroke="none" stroke-width="1" fill="none" fill-rule="evenodd">
        <g id="close" fill="#000000">
            <path d="M39.1527831,32 L53.4583492,17.6944339 C55.4342561,15.7185269 55.4342561,12.5175577 53.4583492,10.5416508 C52.4703958,9.55369732 51.1662972,9.03996152 49.8621986,9.03996152 C48.5976182,9.03996152 47.2935196,9.55369732 46.3055661,10.5416508 L32,24.8472169 L17.6944339,10.5416508 C16.7064804,9.55369732 15.4023818,9.03996152 14.0982833,9.03996152 C12.8337028,9.03996152 11.5296042,9.55369732 10.5416508,10.5416508 C8.56574386,12.5175577 8.56574386,15.7185269 10.5416508,17.6944339 L24.8472169,32 L10.5416508,46.3055661 C8.56574386,48.2814731 8.56574386,51.4824423 10.5416508,53.4583492 C11.5296042,54.4463027 12.8337028,54.9600385 14.0982833,54.9600385 C15.4023818,54.9600385 16.7064804,54.4463027 17.6944339,53.4583492 L32,39.1527831 L46.3055661,53.4583492 C47.2935196,54.4463027 48.5976182,54.9600385 49.8621986,54.9600385 C51.1662972,54.9600385 52.4703958,54.4463027 53.4583492,53.4583492 C55.4342561,51.4824423 55.4342561,48.2814731 53.4583492,46.3055661 L39.1527831,32 Z"></path>
        </g>
    </g>
</svg>