<?xml version="1.0" encoding="UTF-8" standalone="no"?>
<svg width="64px" height="64px" viewBox="0 0 64 64" version="1.1" xmlns="http://www.w3.org/2000/svg" xmlns:xlink="http://www.w3.org/1999/xlink">
    <defs></defs>
    <g id="Page-1" stroke="none" stroke-width="1" fill="none" fill-rule="evenodd">
        <g id="grid" fill="#000000">
            <path d="M10,20.305 C10,20.845 10.405,21.25 10.945,21.25 L20.305,21.25 C20.845,21.25 21.25,20.845 21.25,20.305 L21.25,10.945 C21.25,10.405 20.845,10 20.305,10 L10.945,10 C10.405,10 10,10.405 10,10.945 L10,20.305 Z M26.875,20.305 C26.875,20.845 27.28,21.25 27.82,21.25 L37.18,21.25 C37.72,21.25 38.125,20.845 38.125,20.305 L38.125,10.945 C38.125,10.405 37.72,10 37.18,10 L27.82,10 C27.28,10 26.875,10.405 26.875,10.945 L26.875,20.305 Z M43.75,20.305 C43.75,20.845 44.155,21.25 44.695,21.25 L54.055,21.25 C54.595,21.25 55,20.845 55,20.305 L55,10.945 C55,10.405 54.595,10 54.055,10 L44.695,10 C44.155,10 43.75,10.405 43.75,10.945 L43.75,20.305 Z M10,37.18 C10,37.72 10.405,38.125 10.945,38.125 L20.305,38.125 C20.845,38.125 21.25,37.72 21.25,37.18 L21.25,27.82 C21.25,27.28 20.845,26.875 20.305,26.875 L10.945,26.875 C10.405,26.875 10,27.28 10,27.82 L10,37.18 Z M26.875,37.18 C26.875,37.72 27.28,38.125 27.82,38.125 L37.18,38.125 C37.72,38.125 38.125,37.72 38.125,37.18 L38.125,27.82 C38.125,27.28 37.72,26.875 37.18,26.875 L27.82,26.875 C27.28,26.875 26.875,27.28 26.875,27.82 L26.875,37.18 Z M43.75,37.18 C43.75,37.72 44.155,38.125 44.695,38.125 L54.055,38.125 C54.595,38.125 55,37.72 55,37.18 L55,27.82 C55,27.28 54.595,26.875 54.055,26.875 L44.695,26.875 C44.155,26.875 43.75,27.28 43.75,27.82 L43.75,37.18 Z M10,54.055 C10,54.595 10.405,55 10.945,55 L20.305,55 C20.845,55 21.25,54.595 21.25,54.055 L21.25,44.695 C21.25,44.155 20.845,43.75 20.305,43.75 L10.945,43.75 C10.405,43.75 10,44.155 10,44.695 L10,54.055 Z M26.875,54.055 C26.875,54.595 27.28,55 27.82,55 L37.18,55 C37.72,55 38.125,54.595 38.125,54.055 L38.125,44.695 C38.125,44.155 37.72,43.75 37.18,43.75 L27.82,43.75 C27.28,43.75 26.875,44.155 26.875,44.695 L26.875,54.055 Z M43.75,54.055 C43.75,54.595 44.155,55 44.695,55 L54.055,55 C54.595,55 55,54.595 55,54.055 L55,44.695 C55,44.155 54.595,43.75 54.055,43.75 L44.695,43.75 C44.155,43.75 43.75,44.155 43.75,44.695 L43.75,54.055 Z"></path>
        </g>
    </g>
</svg>